<svg width="70" height="70" viewBox="0 0 70 70" fill="none" xmlns="http://www.w3.org/2000/svg">
<path d="M60.6 25.4H31.8C28.2654 25.4 25.4 28.2654 25.4 31.8V60.6C25.4 64.1346 28.2654 67 31.8 67H60.6C64.1346 67 67 64.1346 67 60.6V31.8C67 28.2654 64.1346 25.4 60.6 25.4Z" stroke="#EEEEEE" stroke-width="5" stroke-linecap="round" stroke-linejoin="round"/>
<path d="M12.6 44.6H9.4C7.70261 44.6 6.07475 43.9257 4.87452 42.7255C3.67428 41.5253 3 39.8974 3 38.2V9.4C3 7.70262 3.67428 6.07475 4.87452 4.87452C6.07475 3.67428 7.70261 3 9.4 3H38.2C39.8974 3 41.5252 3.67428 42.7255 4.87452C43.9257 6.07475 44.6 7.70262 44.6 9.4V12.6" stroke="#EEEEEE" stroke-width="5" stroke-linecap="round" stroke-linejoin="round"/>
</svg>
