<svg width="64" height="64" viewBox="0 0 64 64" fill="#ffffff" xmlns="http://www.w3.org/2000/svg">
    <path d="M31.9538 51.2611C21.3222 51.2611 16.4648 45.8452 16.4648 41.8729C16.4634 40.9253 16.8523 40.0189 17.5401 39.367C18.2279 38.7151 19.1538 38.3752 20.1 38.4274C24.6518 38.4274 23.4612 45.2552 31.9538 45.2552C36.2949 45.2552 38.8448 42.6421 38.8448 40.187C38.8448 38.7119 38.0018 37.026 35.1358 36.3517L25.6528 33.9598C18.0348 32.0211 16.7072 27.7853 16.7072 23.8551C16.7072 15.6997 24.1671 12.7495 31.2689 12.7495C37.8122 12.7495 45.5883 16.3635 45.5883 21.2526C45.5883 23.3599 43.8286 24.4873 41.7845 24.4873C37.8965 24.4873 38.5497 19.0293 30.7315 19.0293C26.8435 19.0293 24.7993 20.8522 24.7993 23.4021C24.7993 25.9519 27.8234 26.816 30.4786 27.3955L37.475 28.976C45.1457 30.704 47.1898 35.2032 47.1898 39.5127C47.1898 46.1403 42.0585 51.2611 31.9432 51.2611H31.9538ZM61.309 37.2367C61.6127 35.4971 61.7643 33.7343 61.7621 31.9684C61.7993 23.0977 57.9016 14.667 51.1196 8.94893C44.3377 3.23086 35.3696 0.81396 26.6327 2.34973C23.9473 0.803606 20.9016 -0.00688131 17.803 4.40109e-05C11.4426 0.0388981 5.57985 3.44773 2.39968 8.95612C-0.780489 14.4645 -0.801062 21.2462 2.34563 26.7738C0.5898 36.4216 3.66549 46.318 10.5806 53.2709C17.4957 60.2239 27.3753 63.3535 37.0325 61.6503C39.7146 63.1951 42.7565 64.0055 45.8517 64C52.2088 63.959 58.068 60.5516 61.2475 55.0466C64.427 49.5415 64.4504 42.7637 61.309 37.2367Z" fill="#EEEEEE" />
</svg>
