<svg width="66" height="64" viewBox="0 0 66 64" fill="none" xmlns="http://www.w3.org/2000/svg">
<path d="M21.9547 51.5326C21.9547 51.7973 21.6503 52.009 21.2666 52.009C20.8297 52.0486 20.5256 51.8371 20.5256 51.5326C20.5256 51.268 20.8298 51.056 21.2138 51.056C21.6108 51.0165 21.9547 51.2281 21.9547 51.5326ZM17.8392 50.9368C17.7466 51.2018 18.0112 51.5059 18.4081 51.5852C18.7522 51.7177 19.1493 51.5852 19.2286 51.3208C19.3083 51.056 19.0567 50.7518 18.6597 50.6325C18.3155 50.5401 17.9318 50.6723 17.8392 50.9368ZM23.6884 50.7119C23.3047 50.8047 23.04 51.056 23.0795 51.3603C23.1194 51.6249 23.4634 51.7974 23.8605 51.7047C24.2444 51.6119 24.5089 51.3603 24.4693 51.0958C24.4294 50.8442 24.0723 50.6723 23.6884 50.7119ZM32.3963 0C14.0408 0 0 13.9351 0 32.2907C0 46.967 9.23696 59.5258 22.4313 63.9461C24.1252 64.2505 24.7207 63.2049 24.7207 62.3446C24.7207 61.5241 24.6812 56.998 24.6812 54.2193C24.6812 54.2193 15.4172 56.2043 13.4719 50.2753C13.4719 50.2753 11.9633 46.4242 9.7929 45.4316C9.7929 45.4316 6.76233 43.354 10.0047 43.3938C10.0047 43.3938 13.3001 43.6586 15.113 46.8082C18.0112 51.9166 22.8679 50.4477 24.7602 49.5741C25.0647 47.4566 25.9249 45.9877 26.8778 45.1143C19.4801 44.2938 12.0162 43.2217 12.0162 30.491C12.0162 26.8517 13.022 25.0255 15.1396 22.6963C14.7955 21.8361 13.6705 18.2896 15.4836 13.7105C18.2495 12.8503 24.6147 17.2837 24.6147 17.2837C27.2617 16.5425 30.1069 16.1588 32.9255 16.1588C35.7445 16.1588 38.5897 16.5425 41.2363 17.2837C41.2363 17.2837 47.602 12.8372 50.3678 13.7105C52.1807 18.3025 51.0558 21.8361 50.7119 22.6963C52.8295 25.0386 54.1261 26.8647 54.1261 30.491C54.1261 43.2617 46.3313 44.2805 38.9339 45.1143C40.1513 46.1595 41.1835 48.1449 41.1835 51.2548C41.1835 55.7144 41.1439 61.2332 41.1439 62.3181C41.1439 63.1782 41.7527 64.2238 43.4333 63.9195C56.6672 59.5259 65.6396 46.967 65.6396 32.2908C65.6396 13.9351 50.7516 0 32.3963 0ZM12.8633 45.6435C12.6912 45.7758 12.7309 46.0803 12.9556 46.3313C13.1674 46.5432 13.4717 46.6357 13.6438 46.464C13.8158 46.3313 13.7761 46.0272 13.5512 45.7758C13.3396 45.5641 13.0354 45.4715 12.8633 45.6435ZM11.4339 44.5716C11.3414 44.7436 11.4736 44.9552 11.7384 45.0876C11.95 45.2202 12.2149 45.1802 12.3075 44.995C12.3999 44.823 12.2678 44.6114 12.0031 44.4789C11.7384 44.3994 11.5264 44.4392 11.4339 44.5716ZM15.7217 49.2826C15.5101 49.4547 15.5895 49.8518 15.8937 50.1031C16.1981 50.4076 16.5818 50.4474 16.7539 50.2353C16.9258 50.0635 16.8465 49.6664 16.5818 49.4151C16.2907 49.1108 15.8937 49.0709 15.7217 49.2826ZM14.213 47.3375C14.0013 47.4696 14.0013 47.8137 14.213 48.118C14.4248 48.4225 14.7821 48.5548 14.954 48.4225C15.1657 48.2504 15.1657 47.9064 14.954 47.602C14.7688 47.2978 14.4249 47.1652 14.213 47.3375Z" fill="#EEEEEE"/>
</svg>
