<svg width="69" height="72" viewBox="0 0 69 72" fill="none" xmlns="http://www.w3.org/2000/svg">
<g filter="url(#filter0_d)">
<path d="M57.86 6.24205C56.2691 4.77465 49.8403 0.109317 35.5206 0.0459348C35.5206 0.0459348 18.634 -0.972026 10.402 6.57625C5.81962 11.158 4.20762 17.8622 4.03758 26.1739C3.86754 34.4857 3.64755 50.0624 18.6676 54.286H18.682L18.6724 60.7308C18.6724 60.7308 18.5763 63.3401 20.295 63.8721C22.3739 64.5175 23.5939 62.5344 25.5786 60.3966C26.668 59.2231 28.1725 57.4993 29.306 56.1817C39.5785 57.046 47.479 55.0706 48.3763 54.7786C50.4503 54.1064 62.1868 52.6025 64.0957 37.0277C66.066 20.9737 63.1427 10.819 57.86 6.24205ZM59.6007 35.8763C57.9897 48.8812 48.4704 49.6984 46.7153 50.2612C45.9688 50.5013 39.0299 52.227 30.3042 51.6575C30.3042 51.6575 23.8024 59.4987 21.7715 61.5375C21.4545 61.8564 21.0818 61.985 20.8329 61.9217C20.4833 61.8362 20.3872 61.4223 20.391 60.8173C20.3968 59.953 20.4468 50.1075 20.4468 50.1075C20.4468 50.1075 20.4391 50.1075 20.4468 50.1075C7.74096 46.5812 8.48163 33.3237 8.62573 26.3814C8.76983 19.4391 10.0744 13.7519 13.9498 9.92688C20.9127 3.62224 35.2564 4.56434 35.2564 4.56434C47.3695 4.61716 53.1738 8.26357 54.5197 9.48513C58.9888 13.3102 61.2655 22.4632 59.6007 35.8724V35.8763Z" fill="#EEEEEE"/>
<path d="M41.4153 25.8109C41.2577 22.6361 39.6445 20.9686 36.5754 20.8085" stroke="#EEEEEE" stroke-width="1.5" stroke-linecap="round" stroke-linejoin="round"/>
<path d="M45.5701 27.2034C45.6342 24.2456 44.7577 21.7743 42.9408 19.7896C41.1155 17.7978 38.5889 16.7011 35.3467 16.4639" stroke="#EEEEEE" stroke-width="1.5" stroke-linecap="round" stroke-linejoin="round"/>
<path d="M49.824 28.8668C49.7849 23.7341 48.2508 19.6917 45.2215 16.7396C42.1921 13.7875 38.4247 12.2958 33.9192 12.2644" stroke="#EEEEEE" stroke-width="1.5" stroke-linecap="round" stroke-linejoin="round"/>
<path d="M36.7358 36.6541C36.7358 36.6541 37.8742 36.7502 38.4871 35.9954L39.6822 34.4924C40.2586 33.7472 41.6496 33.2718 43.0118 34.0305C44.0326 34.6125 45.0237 35.2452 45.9813 35.9262C46.8852 36.5908 48.7364 38.135 48.7422 38.135C49.6241 38.8793 49.8278 39.9721 49.2273 41.1245C49.2273 41.1313 49.2225 41.1428 49.2225 41.1485C48.5613 42.2945 47.7217 43.328 46.7354 44.2101C46.7238 44.2159 46.7238 44.2216 46.7133 44.2274C45.8564 44.9432 45.0145 45.35 44.1877 45.448C44.066 45.4693 43.9422 45.477 43.8188 45.471C43.4542 45.4746 43.0914 45.4188 42.7448 45.3059L42.7179 45.2665C41.444 44.9073 39.3171 44.0084 35.7751 42.0551C33.7254 40.9381 31.7741 39.6495 29.9419 38.2032C29.0236 37.4787 28.1477 36.7021 27.3184 35.8772L27.23 35.7889L27.1416 35.7005L27.0532 35.6122C27.0234 35.5834 26.9946 35.5536 26.9648 35.5238C26.1397 34.6948 25.3629 33.8191 24.6381 32.9011C23.1915 31.0698 21.9025 29.1195 20.7849 27.0709C18.8309 23.5292 17.9317 21.4049 17.5724 20.1296L17.533 20.1027C17.4204 19.7561 17.3649 19.3934 17.3687 19.029C17.362 18.9056 17.3694 18.7819 17.3908 18.6602C17.4939 17.835 17.9016 16.9928 18.6138 16.1336C18.6195 16.123 18.6253 16.123 18.6311 16.1115C19.5132 15.1255 20.5471 14.2865 21.6937 13.6261C21.6994 13.6261 21.7109 13.6204 21.7177 13.6204C22.8705 13.0202 23.9637 13.2237 24.7073 14.1005C24.713 14.1063 26.2549 15.9569 26.9168 16.8606C27.5981 17.8187 28.2311 18.8104 28.8132 19.8319C29.5721 21.1927 29.0966 22.5861 28.3511 23.1604L26.8476 24.3551C26.0887 24.9678 26.1886 26.1058 26.1886 26.1058C26.1886 26.1058 28.4154 34.5308 36.7358 36.6541Z" fill="#EEEEEE"/>
</g>
<defs>
<filter id="filter0_d" x="0" y="0" width="68.7132" height="71.996" filterUnits="userSpaceOnUse" color-interpolation-filters="sRGB">
<feFlood flood-opacity="0" result="BackgroundImageFix"/>
<feColorMatrix in="SourceAlpha" type="matrix" values="0 0 0 0 0 0 0 0 0 0 0 0 0 0 0 0 0 0 127 0"/>
<feOffset dy="4"/>
<feGaussianBlur stdDeviation="2"/>
<feColorMatrix type="matrix" values="0 0 0 0 0 0 0 0 0 0 0 0 0 0 0 0 0 0 0.25 0"/>
<feBlend mode="normal" in2="BackgroundImageFix" result="effect1_dropShadow"/>
<feBlend mode="normal" in="SourceGraphic" in2="effect1_dropShadow" result="shape"/>
</filter>
</defs>
</svg>
