<svg width="78" height="64" viewBox="0 0 78 64" fill="none" xmlns="http://www.w3.org/2000/svg">
<path d="M5.30889 27.5518C26.0391 18.52 39.8624 12.5657 46.779 9.68887C66.5272 1.47492 70.6307 0.0480745 73.3053 0.000456773C73.8935 -0.00940338 75.2088 0.136382 76.0608 0.827715C76.7802 1.41146 76.9782 2.20002 77.0729 2.75348C77.1676 3.30694 77.2855 4.56772 77.1918 5.55287C76.1216 16.7971 71.4911 44.084 69.1353 56.6778C68.1385 62.0067 66.1757 63.7934 64.2755 63.9683C60.146 64.3483 57.0102 61.2392 53.0106 58.6174C46.7519 54.5148 43.2162 51.9609 37.1411 47.9574C30.1202 43.3308 34.6716 40.7879 38.6727 36.6322C39.7198 35.5446 57.9146 18.995 58.2668 17.4937C58.3108 17.306 58.3517 16.6061 57.9359 16.2365C57.5201 15.8669 56.9064 15.9933 56.4636 16.0938C55.8359 16.2363 45.8376 22.8448 26.4687 35.9193C23.6307 37.8681 21.0602 38.8176 18.7571 38.7678C16.218 38.713 11.334 37.3322 7.70321 36.152C3.24991 34.7044 -0.289494 33.9391 0.0187087 31.4806C0.179239 30.2001 1.94263 28.8905 5.30889 27.5518Z" fill="#EEEEEE"/>
</svg>
